# xmcd CD database file
#
# Track frame offsets:
#	21940
#	33122
#	52430
#	65100
#	89152
#	103812
#	129020
#	149032
#	176507
#	199510
#	223580
#	236477
#	250800
#	268442
#	284487
#	304005
#
# Disc length: 4235 seconds
#
# Revision: 6
# Processed by: cddbd v1.5.2PL0 Copyright (c) Steve Scherf et al.
# Submitted via: CDex 1.51
#
DISCID=0d0f6710
DTITLE=Will Oldham - Guarapero - Lost Blues 2
DYEAR=2000
DGENRE=Rock
TTITLE0=Drinking Woman
TTITLE1=The Spider's Dude Is Often There
TTITLE2=Gezundheit
TTITLE3=Let The Wires Ring
TTITLE4=Big Balls
TTITLE5=For The Mekons Et Al
TTITLE6=Stable Will
TTITLE7=Every Mother's Son
TTITLE8=No More Rides
TTITLE9=The Risen Lord
TTITLE10=Boy, Have You Cum
TTITLE11=Patience
TTITLE12=Take However Long You Want
TTITLE13=Sugarcane Juice Drinker
TTITLE14=Call Me A Liar
TTITLE15=O Lord Are You In Need?
EXTD=YEAR: 2000
EXTT0=
EXTT1=
EXTT2=
EXTT3=
EXTT4=
EXTT5=
EXTT6=
EXTT7=
EXTT8=
EXTT9=
EXTT10=
EXTT11=
EXTT12=
EXTT13=
EXTT14=
EXTT15=
PLAYORDER=
